<?xml version="1.0" standalone="no"?><!DOCTYPE svg PUBLIC "-//W3C//DTD SVG 1.1//EN" "http://www.w3.org/Graphics/SVG/1.1/DTD/svg11.dtd"><svg class="icon" width="200px" height="200.00px" viewBox="0 0 1024 1024" version="1.1" xmlns="http://www.w3.org/2000/svg"><path d="M815.5136 399.7696c-16.5888-1.6384-25.1904-3.8912-31.5392 8.6016a16.1792 16.1792 0 0 1-28.672 0c-6.3488-12.288-14.5408-10.8544-25.1904-8.3968a37.6832 37.6832 0 0 0 20.48 35.6352c4.3008 2.6624 9.8304 7.168 10.4448 11.6736 9.6256 60.2112-53.4528 145.408-114.8928 155.8528A98.7136 98.7136 0 0 1 532.48 536.3712a102.4 102.4 0 0 1 46.6944-122.88 70.8608 70.8608 0 0 0 14.9504-16.1792 72.2944 72.2944 0 0 0-20.48-9.4208 50.176 50.176 0 0 1-43.6224-33.3824 46.8992 46.8992 0 0 1 12.288-54.6816c12.4928-11.264 14.5408-18.0224 0-30.5152A50.5856 50.5856 0 0 1 557.8752 184.32a149.0944 149.0944 0 0 1 169.5744 44.2368 38.912 38.912 0 0 1-7.9872 58.1632c-7.168 5.9392-13.5168 12.4928-20.48 18.8416-26.624-34.4064-40.96-43.6224-69.4272-42.3936v20.48a48.5376 48.5376 0 0 1 45.056 28.672 37.0688 37.0688 0 0 1 1.2288 28.672 311.0912 311.0912 0 0 0-26.624 102.4 30.3104 30.3104 0 0 1-10.6496 16.9984 39.1168 39.1168 0 0 0-17.6128 33.1776c10.0352 2.8672 18.0224 5.12 24.7808-6.9632a16.384 16.384 0 0 1 29.696 0c6.5536 13.5168 15.36 8.8064 31.5392 7.9872-10.6496-13.312-17.408-23.552-24.9856-33.5872-3.072-3.6864-9.4208-7.3728-9.216-10.8544a204.8 204.8 0 0 1 50.7904-136.8064 94.0032 94.0032 0 0 1 158.3104 44.8512 152.7808 152.7808 0 0 1-12.4928 112.64 84.3776 84.3776 0 0 1-69.4272 47.5136c-5.12 0-14.1312 4.5056-13.9264 6.3488a63.0784 63.0784 0 0 0 6.9632 18.0224 53.6576 53.6576 0 0 1 4.5056 10.6496 100.5568 100.5568 0 0 1-78.848 110.592c-5.12 0-11.6736-3.4816-16.7936-6.7584-10.24-6.5536-20.48-13.9264-32.1536-22.9376-3.6864 16.384-5.12 24.7808 7.9872 31.3344a15.9744 15.9744 0 0 1 0 27.8528c-11.4688 6.144-12.288 13.7216-9.6256 25.3952a36.4544 36.4544 0 0 0 35.2256-20.48 46.2848 46.2848 0 0 1 16.9984-11.8784c20.48-10.8544 40.96-20.48 61.44-31.5392a218.5216 218.5216 0 0 1 24.1664-11.6736c15.7696-5.5296 31.9488-10.24 49.7664-15.7696a100.352 100.352 0 0 1-15.36 95.232 95.6416 95.6416 0 0 1-96.0512 38.5024c-16.9984-2.8672-22.528 2.048-27.2384 16.9984a95.6416 95.6416 0 0 1-81.92 69.2224 97.0752 97.0752 0 0 1-97.6896-42.5984 50.5856 50.5856 0 0 1 6.7584-71.2704c12.0832-10.8544 10.4448-17.6128 0-27.8528a49.9712 49.9712 0 0 1 5.7344-80.2816 40.96 40.96 0 0 1 28.8768-6.9632c60.2112 20.48 109.3632 2.8672 151.552-40.96a183.0912 183.0912 0 0 0 54.4768-129.4336 40.96 40.96 0 0 1 7.7824-17.408c6.144-8.6016 13.9264-18.0224 22.9376-30.9248z" fill="#17B794" /><path d="M814.08 618.2912l8.8064-77.0048 61.44-44.032c20.8896 47.7184-20.48 113.2544-70.2464 121.0368zM208.4864 399.7696c16.5888-1.6384 25.1904-3.8912 31.5392 8.6016a16.1792 16.1792 0 0 0 28.672 0c6.3488-12.288 14.5408-10.8544 25.1904-8.3968a37.6832 37.6832 0 0 1-20.48 35.6352c-4.3008 2.6624-9.8304 7.168-10.4448 11.6736-9.6256 60.2112 53.4528 145.408 114.8928 155.8528A98.7136 98.7136 0 0 0 491.52 536.3712a102.4 102.4 0 0 0-46.6944-122.88 70.8608 70.8608 0 0 1-14.9504-16.1792 72.2944 72.2944 0 0 1 20.48-9.4208 50.176 50.176 0 0 0 43.6224-33.3824 46.8992 46.8992 0 0 0-12.288-54.6816c-12.4928-11.264-14.5408-18.0224 0-30.5152A50.5856 50.5856 0 0 0 466.1248 184.32a149.0944 149.0944 0 0 0-169.5744 44.2368 38.912 38.912 0 0 0 7.9872 58.1632c7.168 5.9392 13.5168 12.4928 20.48 18.8416 26.624-34.4064 40.96-43.6224 69.4272-42.3936v20.48a48.5376 48.5376 0 0 0-45.056 28.672 37.0688 37.0688 0 0 0-1.2288 28.672 311.0912 311.0912 0 0 1 26.624 102.4 30.3104 30.3104 0 0 0 10.6496 16.9984 39.1168 39.1168 0 0 1 17.6128 33.1776c-10.0352 2.8672-18.0224 5.12-24.7808-6.9632a16.384 16.384 0 0 0-29.696 0c-6.5536 13.5168-15.36 8.8064-31.5392 7.9872 10.0352-13.7216 17.408-23.9616 24.9856-33.9968 3.072-3.6864 9.4208-7.3728 9.216-10.8544a204.8 204.8 0 0 0-50.7904-136.8064 94.0032 94.0032 0 0 0-158.3104 44.8512A152.7808 152.7808 0 0 0 154.624 471.04a84.3776 84.3776 0 0 0 69.4272 47.5136c5.12 0 14.1312 4.5056 13.9264 6.3488a63.0784 63.0784 0 0 1-6.9632 18.0224 53.6576 53.6576 0 0 0-4.5056 10.6496 100.5568 100.5568 0 0 0 78.848 110.592c5.12 0 11.6736-3.4816 16.7936-6.7584 10.24-6.5536 20.48-13.9264 32.1536-22.9376 3.6864 16.384 5.12 24.7808-7.9872 31.3344a15.9744 15.9744 0 0 0 0 27.8528c11.4688 6.144 12.288 13.7216 9.6256 25.3952a36.4544 36.4544 0 0 1-35.2256-20.48 46.2848 46.2848 0 0 0-16.9984-11.8784c-20.48-10.8544-40.96-20.48-61.44-31.5392a218.5216 218.5216 0 0 0-24.1664-11.6736c-15.7696-5.5296-31.9488-10.24-49.7664-15.7696A100.352 100.352 0 0 0 184.32 723.7632a95.6416 95.6416 0 0 0 96.0512 38.5024c16.9984-2.8672 22.528 2.048 27.2384 16.9984a95.6416 95.6416 0 0 0 81.92 69.2224 97.0752 97.0752 0 0 0 97.6896-42.5984 50.5856 50.5856 0 0 0-6.7584-71.2704c-12.0832-10.8544-10.4448-17.6128 0-27.8528a49.9712 49.9712 0 0 0-5.7344-80.2816 40.96 40.96 0 0 0-28.8768-6.9632c-60.2112 20.48-109.3632 2.8672-151.552-40.96a183.0912 183.0912 0 0 1-54.4768-129.4336 40.96 40.96 0 0 0-7.7824-17.408c-6.7584-9.6256-14.5408-19.0464-23.552-31.9488z" fill="#17B794" /><path d="M209.92 618.2912l-8.8064-77.0048-61.44-44.032c-20.8896 47.7184 20.48 113.2544 70.2464 121.0368zM516.096 379.6992l32.1536 26.8288-31.9488 40.96-32.3584-40.96zM516.096 559.3088l31.1296 40.96-31.1296 25.3952-31.1296-26.4192z" fill="#17B794" /></svg>