<svg class="icon" width="64" height="64" viewBox="0 0 1024 1024" xmlns="http://www.w3.org/2000/svg"><path d="m142.827 386.156-84.839 63.629 90.495 173.92L306.85 704.3l275.726 18.382 25.452-28.28 304.006-2.827 11.312-206.442-46.662-77.769H538.742l-12.726-21.21H142.827z" fill="#1E6E87"/><path d="m120.204 403.123-62.216 46.662 90.495 173.92L306.85 704.3l275.726 18.382 25.452-28.28-12.726-98.978 2.828-128.672-45.247-59.388h-14.14l31.108 77.77-2.828 107.462-67.871-8.484-137.157-173.92-241.79-7.07z" fill="#0E3B42"/><path d="M284.225 692.99 306.85 704.3l275.726 18.382 24.038-28.28-2.828-33.935s-277.14-70.699-282.796-66.457c-5.656 4.242-43.833 72.113-41.006 80.597 1.414 2.828 2.828 8.484 4.242 18.382z"/><path d="m923.345 485.134-46.662-77.769H552.882l45.247 59.388 325.216 18.381z" fill="#115363"/><path d="M779.119 407.365v-53.73l-14.14-5.657 1.414-206.441h-14.14l-7.07 206.441-15.554 4.242-1.414 55.145h50.904zm-253.103-21.21-26.865-127.258 25.451 4.242 28.28 144.226h-14.14l-12.726-21.21z" fill="#000305"/><path d="m425.624 386.156 57.973-33.936 29.693 33.936h-87.666z" fill="#0E3B42"/><path d="m468.043 360.704-14.14-18.382 38.178-28.28-5.656-11.311-84.84 59.387 12.727 9.898 29.693-21.21 12.726 16.968 11.312-7.07z" fill="#000305"/><path d="m220.596 386.156-28.28-74.941-22.623 1.414-1.414 73.527h52.317z" fill="#0E3B42"/><path d="M854.06 558.661h-2.828 2.828zm-2.828 0v11.312h19.796v-11.312c22.623 1.414 45.247 7.07 63.629 16.968L929 585.527l18.382 9.898 5.655-9.898c18.382 12.726 35.35 28.28 46.662 46.661l-9.898 5.656 9.898 18.382 9.898-5.656c9.898 19.796 15.553 41.006 16.967 63.63h-11.311v19.795h12.725c-1.414 22.624-7.07 45.247-16.967 63.63l-11.312-4.243-9.898 18.382 9.898 5.656c-12.726 18.382-28.28 35.35-46.662 46.661l-5.655-9.898L929 864.081l5.656 9.898c-19.796 9.898-41.006 15.554-63.63 16.968v-11.312h-19.795v11.312c-22.624-1.414-45.248-7.07-63.63-16.968l5.657-9.898-18.382-9.898-5.656 9.898c-18.382-12.726-35.35-28.28-46.661-46.661l9.897-5.656-9.897-18.382-9.898 5.656c-9.898-19.796-15.554-41.005-16.968-63.629h11.312v-19.796h-11.312c1.414-22.623 7.07-45.247 16.968-63.629l9.898 5.656 9.897-18.382-9.897-5.656c12.725-18.381 28.28-35.35 46.66-46.661l5.657 9.898 18.382-9.898-5.656-9.898c18.381-11.312 39.591-16.968 63.629-18.382zm-69.285 18.382-1.414 1.414 1.414-1.414zm-2.828 2.828-1.414 1.414c0-1.414 0-1.414 1.414-1.414zm-4.242 1.414-1.414 1.414 1.414-1.414zm-2.828 2.828-1.414 1.414c0-1.414 1.414-1.414 1.414-1.414zm-55.145 56.56-1.414 1.413s1.414 0 1.414-1.414zm-2.828 2.827c0 1.414-1.414 1.414-1.414 2.828 1.414 0 1.414-1.414 1.414-2.828zm-1.414 4.242c0 1.414-1.414 1.414-1.414 2.828 1.414-1.414 1.414-1.414 1.414-2.828zm-18.382 84.839zm21.21 74.941 1.414 1.414-1.414-1.414zm57.973 59.387 1.414 1.414-1.414-1.414zm2.828 2.828 1.414 1.414c0-1.414 0-1.414-1.414-1.414zm4.242 1.414c1.414 0 1.414 1.414 2.828 1.414-1.414 0-2.828-1.414-2.828-1.414zm87.667 21.21h2.828-2.828zm67.87-18.382c1.415 0 1.415-1.414 2.829-1.414-1.414 1.414-2.828 1.414-2.828 1.414zm67.872-60.801c0-1.414 1.414-1.414 1.414-2.828-1.414 1.414-1.414 1.414-1.414 2.828zm1.414-4.242 1.414-1.414-1.414 1.414zm1.414-2.828c0-1.414 1.414-1.414 1.414-2.828 0 1.414 0 1.414-1.414 2.828zm21.21-89.08v-2.829 2.828zm-16.968-66.458c0-1.414-1.414-1.414-1.414-2.828 0 1.414 0 1.414 1.414 2.828zm-2.828-4.242c0-1.414-1.414-1.414-1.414-2.828 1.414 1.414 1.414 2.828 1.414 2.828zm-1.414-4.242-1.414-1.414c0 1.414 1.414 1.414 1.414 1.414zm-2.828-2.828-1.414-1.414c1.414 0 1.414 1.414 1.414 1.414zM948.797 582.7l-1.414-1.414s0 1.414 1.414 1.414zm-4.242-2.828-1.414-1.414 1.414 1.414zm-2.828-1.414c-1.414 0-1.414-1.414-2.828-1.414 1.414 0 1.414 1.414 2.828 1.414zm-4.242-1.414c-1.414 0-1.414-1.414-2.828-1.414 1.414 0 2.828 0 2.828 1.414z" fill="#39393B"/><path d="M861.13 602.495c-67.871 0-123.017 55.145-123.017 123.016 0 67.871 55.146 123.016 123.017 123.016 67.87 0 123.016-55.145 123.016-123.016 0-67.871-55.145-123.016-123.016-123.016z" fill="#1E6E87"/><path d="M861.13 622.29c-56.56 0-101.807 45.248-101.807 101.807S804.57 825.904 861.13 825.904s101.806-45.248 101.806-101.807c0-55.145-45.247-101.806-101.806-101.806zM196.559 462.51v15.554h26.865v-15.553c29.694 1.414 57.973 9.898 82.011 22.623l-7.07 12.726L320.99 512l7.07-12.726c24.038 15.554 45.247 36.764 60.801 60.801l-12.726 7.07 12.726 22.624 12.726-7.07c12.726 25.452 19.796 53.731 22.624 82.01h-15.554v26.867h15.554c-1.414 29.693-9.898 57.973-22.624 82.01l-12.726-7.07-12.726 22.624 12.726 7.07c-15.554 24.038-36.763 45.248-60.801 60.801l-7.07-14.14-22.624 12.726 7.07 12.726c-25.452 12.726-53.731 19.796-82.01 22.624v-15.554h-26.866v15.554c-29.694-1.414-57.974-9.898-82.011-22.624l7.07-12.726-22.624-12.725-7.07 12.725c-24.038-15.553-45.247-36.763-60.801-60.8l12.726-7.07-12.726-22.624-12.726 7.07C5.671 746.72-1.399 718.44-4.227 690.162h15.554v-26.866H-4.227c1.414-29.694 9.898-57.973 22.624-82.01l12.726 7.069 12.726-22.624-12.726-7.07c15.554-24.037 36.763-45.247 60.801-60.8l7.07 12.725 22.624-12.726-7.07-12.726c25.451-12.725 52.317-19.795 82.01-22.623zm-83.425 22.624c-1.414 0-1.414 1.414-2.828 1.414 1.414 0 2.828 0 2.828-1.414zm-4.242 2.828c-1.414 0-1.414 1.414-2.828 1.414 1.414-1.414 2.828-1.414 2.828-1.414zm-4.242 2.828c-1.414 0-1.414 1.414-2.828 1.414 1.414-1.414 1.414-1.414 2.828-1.414zm-4.242 2.828c-1.414 0-1.414 1.414-2.828 1.414 1.414-1.414 1.414-1.414 2.828-1.414zm-4.242 1.414c-1.414 0-1.414 1.414-2.828 1.414 1.414 0 1.414 0 2.828-1.414zm-66.457 65.043c0 1.414-1.414 1.414-1.414 2.828 1.414-1.414 1.414-1.414 1.414-2.828zm-2.828 4.242c0 1.414-1.414 1.414-1.414 2.828 1.414 0 1.414-1.414 1.414-2.828zm-1.414 4.242c0 1.414-1.414 2.828-1.414 2.828s0-1.414 1.414-2.828zm-2.828 4.242c0 1.414-1.414 2.828-1.414 2.828s0-1.414 1.414-2.828zm-2.828 5.656c0 1.414-1.414 2.828-1.414 2.828 0-1.414 1.414-2.828 1.414-2.828zM-4.227 664.71zm0 22.624zm22.624 86.252c0 1.414 1.414 2.828 1.414 2.828 0-1.414-1.414-1.414-1.414-2.828zm2.828 4.242c0 1.414 1.414 1.414 1.414 2.828-1.414 0-1.414-1.414-1.414-2.828zm1.414 4.242c0 1.414 1.414 2.828 1.414 2.828s0-1.414-1.414-2.828zm2.828 4.242c0 1.414 1.414 1.414 1.414 2.828 0 0 0-1.414-1.414-2.828zm2.828 5.656c0 1.414 1.414 1.414 1.414 2.828 0-1.414 0-2.828-1.414-2.828zm65.043 65.043c1.414 0 1.414 1.414 2.828 1.414-1.414 0-1.414 0-2.828-1.414zm4.242 2.828c1.414 0 1.414 1.414 2.828 1.414-1.414 0-1.414 0-2.828-1.414zm4.242 2.828c1.414 0 1.414 1.414 2.828 1.414 0 0-1.414 0-2.828-1.414zm4.242 2.828c1.414 0 1.414 1.414 2.828 1.414 0 0-1.414-1.414-2.828-1.414zm5.656 2.828c1.414 0 1.414 1.414 2.828 1.414-1.414-1.414-2.828-1.414-2.828-1.414zm108.876 24.038h2.828-2.828zm86.253-22.624c1.414 0 1.414-1.414 2.828-1.414-1.414 0-1.414 0-2.828 1.414zm4.242-2.828c1.414 0 1.414-1.414 2.828-1.414-1.414 0-1.414 1.414-2.828 1.414zm4.242-2.828c1.414 0 1.414-1.414 2.828-1.414 0 1.414-1.414 1.414-2.828 1.414zm4.242-2.828c1.414 0 1.414-1.414 2.828-1.414 0 1.414-1.414 1.414-2.828 1.414zm5.656-2.828c1.414 0 1.414-1.414 2.828-1.414-1.414 1.414-2.828 1.414-2.828 1.414zm65.043-63.629c0-1.414 1.414-1.414 1.414-2.828 0 0 0 1.414-1.414 2.828zm2.828-4.242c0-1.414 1.414-1.414 1.414-2.828 0 0-1.414 1.414-1.414 2.828zm2.828-4.242c0-1.414 1.414-2.828 1.414-4.242 0 1.414-1.414 2.828-1.414 4.242zm2.828-5.656c0-1.414 1.414-1.414 1.414-2.828-1.414 1.414-1.414 2.828-1.414 2.828zm1.414-4.242c0-1.414 1.414-2.828 1.414-2.828 0 1.414 0 1.414-1.414 2.828zm24.038-86.252v-2.828 2.828zm0-22.624v-2.828 2.828zM403 581.285c0-1.414-1.414-2.828-1.414-2.828s0 1.414 1.414 2.828zm-2.828-4.242c0-1.414-1.414-2.828-1.414-2.828s0 1.414 1.414 2.828zm-2.828-5.656c0-1.414-1.414-2.828-1.414-2.828 0 1.414 1.414 2.828 1.414 2.828zm-2.828-4.242c0-1.414-1.414-1.414-1.414-2.828 0 1.414 1.414 2.828 1.414 2.828zm-2.828-4.242c0-1.414-1.414-1.414-1.414-2.828 1.414 1.414 1.414 1.414 1.414 2.828zm-63.63-65.043c-1.413 0-1.413-1.414-2.827-1.414 0 0 1.414 0 2.828 1.414zm-5.655-2.828c-1.414 0-1.414-1.414-2.828-1.414 1.414 0 2.828 0 2.828 1.414zm-4.242-2.828c-1.414 0-1.414-1.414-2.828-1.414 1.414 0 2.828 0 2.828 1.414zm-4.242-2.828c-1.414 0-1.414-1.414-2.828-1.414 1.414 0 1.414 1.414 2.828 1.414zm-4.242-2.828c-1.414 0-1.414-1.414-2.828-1.414 1.414 1.414 1.414 1.414 2.828 1.414z" fill="#39393B"/><path d="M210.698 519.07c-87.666 0-158.365 70.699-158.365 158.366s70.699 158.366 158.365 158.366 158.366-70.7 158.366-158.366c-1.414-87.667-72.113-158.366-158.366-158.366z" fill="#1E6E87"/><path d="M210.698 545.936c-72.113 0-131.5 59.387-131.5 131.5s59.387 131.5 131.5 131.5 131.5-59.387 131.5-131.5c0-73.527-59.387-131.5-131.5-131.5z" fill="#39393B"/><path d="m681.554 685.92-24.038 1.414L760.737 533.21l214.925-8.484-4.242 24.038-197.957 9.897-91.909 127.259zm-203.613 0-35.35 4.242L312.505 476.65H96.166l-63.63 53.732-19.795-24.038 77.769-59.387 247.447-2.828 139.984 241.79z" fill="#4E4D52"/><path d="m846.99 431.403 7.07 19.796-224.823-7.07 2.828-11.312 214.925-1.414z" fill="#000305"/><path d="M691.452 533.21V572.8l-73.527 5.656 1.414-46.661 72.113 1.414z"/><path d="m617.925 578.457 1.414-46.661 73.527 1.414V572.8l-74.941 5.656zm1.414-46.661-1.414 45.247 72.113-5.656V533.21l-70.7-1.414z"/><path d="m156.967 195.268 2.828 41.006c9.898-1.414 18.382-9.898 16.968-22.624 0-9.898-9.898-18.382-19.796-18.382z" fill="#1E6E87"/><path d="m149.813 195.565 7.056-.494 2.912 40.892-7.056.508z" fill="#000305"/><path d="M589.645 123.155c-12.725 1.414-21.21 11.312-21.21 24.038l45.248-2.828c0-12.726-11.312-21.21-24.038-21.21z" fill="#F2D03B"/><path d="M567.022 147.193v7.07l-28.28 1.414 24.038 18.382 1.414 18.381 38.177-21.21 2.828-8.483h11.312l-1.414-19.796z" fill="#0E3B42"/><path d="m169.693 383.328 5.656-189.474 25.452-24.037 333.7-24.038 33.935 26.866 31.107 436.92-154.124 11.312-5.656-79.183-82.01-100.393-152.71-56.56-33.936 2.829z" fill="#1E6E87"/><path d="m210.698 195.268-5.655 169.678 147.054 21.21 127.258 152.71 52.317-4.242-25.452-360.565z" fill="#DAEDE2"/><path d="M479.355 548.764c-2.828 0-5.656-1.414-8.484-4.242L346.44 394.64l-142.812-21.21c-5.656-1.414-8.484-5.656-8.484-9.898l5.656-169.678c0-5.656 4.242-9.898 9.897-9.898l296.936-21.21c2.828 0 5.656 0 7.07 2.829 1.414 1.414 2.828 4.242 2.828 7.07l25.452 360.565c0 2.828 0 5.656-2.828 7.07s-4.242 2.828-7.07 2.828l-53.731 5.656zm-263-192.302 138.57 19.796c2.827 0 4.241 1.414 7.07 4.242L485.01 528.968l38.177-2.828-24.037-340.77-277.14 19.796-5.657 151.296z" fill="#1D181F"/><path d="m523.188 172.645-16.968 1.414 15.554 209.269 33.936-1.414-14.14-192.302z" fill="#DAEDE2"/><path d="M521.774 394.64c-5.656 0-9.898-4.242-9.898-9.898l-15.553-209.27c0-2.827 0-5.655 2.828-7.07 1.414-1.413 4.241-2.827 7.07-2.827l16.967-1.414c2.828 0 5.656 1.414 7.07 2.828l18.382 16.967c1.414 1.414 2.828 4.242 2.828 7.07l14.14 190.888c0 2.828 0 5.656-2.828 7.07-1.414 1.414-4.242 2.828-7.07 2.828l-33.936 2.828zm-4.242-210.684 14.14 189.474 14.14-1.414-12.726-176.748-12.726-11.312h-2.828z" fill="#1D181F"/><path d="m312.505 380.5 4.242-192.302" fill="#DAEDE2"/><path d="m303.003 380.91 3.493-192.274 21.21.396-3.508 192.259z" fill="#1D181F"/><path d="m210.698 195.268-5.655 169.678 147.054 21.21 50.903 60.8-4.242-49.488 11.312-1.414c8.484 0 14.14-7.07 14.14-15.554s-7.07-14.14-15.554-14.14l-73.527 5.656-8.484-127.258c0-8.484-7.07-14.14-15.554-14.14s-14.14 7.07-14.14 15.554l7.07 94.736-77.769-9.898 4.242-138.57-19.796 2.828zm320.974 82.011-56.56 28.28-7.069 16.968-11.312-5.656 11.312-25.452c1.414-2.828 0-7.07-2.828-8.484s-7.07 0-8.484 2.828l-25.452 56.56c-1.414 2.827 0 7.07 2.828 8.483h2.828c2.828 0 4.242-1.414 5.656-4.242l11.312-24.037 11.312 5.655-11.312 28.28 29.694 29.694 31.107 149.882 16.968-1.414 33.936-2.828L554.296 380.5l-7.07-104.635-15.554 1.414z" fill="#1D181F"/></svg>