<?xml version="1.0" standalone="no"?><!DOCTYPE svg PUBLIC "-//W3C//DTD SVG 1.1//EN" "http://www.w3.org/Graphics/SVG/1.1/DTD/svg11.dtd"><svg class="icon" width="64px" height="64.00px" viewBox="0 0 1024 1024" version="1.1" xmlns="http://www.w3.org/2000/svg"><path d="M142.82733998 386.15569076l-84.83886017 63.62914512 90.49478419 173.91966334 158.3658723 80.59691717 275.72629555 18.38175303 25.45165805-28.27962007 304.00591562-2.82796199 11.31184801-206.44122642-46.6613731-77.76895515H538.74202076l-12.72582902-21.20971503H142.82733998z" fill="#1E6E87" /><path d="M120.20364393 403.12346279l-62.21516412 46.66137309 90.49478419 173.91966334 158.3658723 80.59691717 275.72629555 18.38175303 25.45165805-28.27962007-12.72582902-98.97867019 2.827962-128.67227125-45.24739209-59.38720212h-14.13981003l31.10758207 77.76895515-2.82796201 107.46255621-67.87108812-8.483886-137.15615728-173.91966335-241.79075149-7.06990501z" fill="#0E3B42" /><path d="M284.22544026 692.98956836l22.62369604 11.31184803 275.72629555 18.38175303 24.03767706-28.27962007-2.82796203-33.93554405s-277.14027654-70.69905013-282.79620055-66.45710713c-5.65592402 4.24194301-43.83341109 72.11303115-41.00544908 80.59691715 1.41398101 2.82796201 2.82796201 8.48388603 4.24194301 18.38175304z"  /><path d="M923.34485353 485.13436094l-46.6613731-77.76895515H552.88183079l45.24739209 59.38720212 325.21563065 18.38175303z" fill="#115363" /><path d="M779.11879124 407.36540579v-53.73127811l-14.13981003-5.655924 1.41398101-206.44122642h-14.13981004l-7.06990501 206.44122642-15.55379103 4.24194301-1.41398099 55.1452591h50.90331609zM526.01619174 386.15569076l-26.86563904-127.25829026 25.45165804 4.24194301 28.27962005 144.22606228h-14.13981003l-12.72582902-21.20971503z" fill="#000305" /><path d="M425.62354054 386.15569076l57.97322112-33.93554407 29.69360105 33.93554407h-87.66682217z" fill="#0E3B42" /><path d="M468.04297063 360.70403271l-14.13981002-18.38175305 38.17748707-28.27962004-5.65592402-11.31184804-84.83886017 59.38720213 12.72582903 9.89786702 29.69360105-21.20971506 12.72582903 16.96777205 11.31184803-7.06990501z" fill="#000305" /><path d="M220.59629514 386.15569076l-28.27962006-74.94099315-22.62369605 1.41398099-1.413981 73.52701216h52.31729711z" fill="#0E3B42" /><path d="M854.05978439 558.6613731h-2.82796201 2.82796201z m-2.82796201 0v11.31184801h19.79573403v-11.31184801c22.62369604 1.41398101 45.24739209 7.06990501 63.62914514 16.96777202l-5.65592401 9.89786703 18.38175302 9.89786701 5.65592402-9.89786701c18.38175303 12.72582902 35.34952507 28.27962006 46.6613731 46.6613731l-9.89786703 5.65592399 9.89786703 18.38175304 9.89786701-5.65592401c9.89786702 19.79573404 15.55379103 41.00544908 16.96777205 63.62914512h-11.31184803v19.79573405h12.72582903c-1.41398101 22.62369604-7.06990501 45.24739209-16.96777205 63.62914513l-11.31184801-4.24194301-9.89786703 18.38175303 9.89786703 5.65592402c-12.72582902 18.38175303-28.27962006 35.34952507-46.6613731 46.6613731l-5.65592402-9.89786704-18.38175302 9.89786704 5.65592401 9.897867c-19.79573404 9.89786702-41.00544908 15.55379103-63.62914514 16.96777204v-11.31184802H851.23182238v11.31184802c-22.62369604-1.41398101-45.24739209-7.06990501-63.62914513-16.96777204l5.65592402-9.897867-18.38175303-9.89786704-5.65592402 9.89786704c-18.38175303-12.72582902-35.34952507-28.27962006-46.66137309-46.6613731l9.89786702-5.65592402-9.89786702-18.38175303-9.89786702 5.655924c-9.89786702-19.79573404-15.55379103-41.00544908-16.96777203-63.62914513h11.31184802v-19.79573402h-11.31184802c1.41398101-22.62369604 7.06990501-45.24739209 16.96777203-63.62914514l9.89786702 5.65592403 9.89786702-18.38175305-9.89786702-5.65592401c12.72582902-18.38175303 28.27962006-35.34952507 46.66137309-46.6613731l5.65592402 9.89786703 18.38175303-9.89786703-5.65592402-9.89786701c18.38175303-11.31184801 39.59146809-16.96777203 63.62914513-18.38175303z m-69.28506914 18.38175303l-1.413981 1.41398101 1.413981-1.41398101z m-2.827962 2.827962l-1.41398101 1.41398101c0-1.41398101 0-1.41398101 1.41398101-1.41398101z m-4.241943 1.41398101L773.46286724 582.69905013l1.413981-1.41398099z m-2.82796201 2.82796201l-1.413981 1.413981c0-1.41398101 1.41398101-1.41398101 1.413981-1.413981z m-55.14525911 56.5592401l-1.413981 1.41398101s1.41398101 0 1.413981-1.41398101z m-2.82796202 2.82796201c0 1.41398101-1.41398101 1.41398101-1.41398099 2.827962 1.41398101 0 1.41398101-1.41398101 1.41398099-2.827962z m-1.41398099 4.24194301c0 1.41398101-1.41398101 1.41398101-1.41398101 2.827962 1.41398101-1.41398101 1.41398101-1.41398101 1.41398101-2.827962z m-18.38175303 84.83886016z m21.20971504 74.94099316l1.413981 1.41398099-1.413981-1.41398099z m57.97322112 59.3872021l1.413981 1.41398101-1.413981-1.41398101z m2.827962 2.82796202l1.41398099 1.413981c0-1.41398101 0-1.41398101-1.41398099-1.413981z m4.241943 1.413981c1.41398101 0 1.41398101 1.41398101 2.827962 1.413981-1.41398101 0-2.82796201-1.41398101-2.827962-1.413981z m87.66682218 21.20971503h2.82796199-2.82796199z m67.87108813-18.38175303c1.41398101 0 1.41398101-1.41398101 2.82796201-1.413981-1.41398101 1.41398101-2.82796201 1.41398101-2.82796201 1.413981z m67.87108814-60.80118311c0-1.41398101 1.41398101-1.41398101 1.413981-2.82796201-1.41398101 1.41398101-1.41398101 1.41398101-1.413981 2.82796201z m1.413981-4.24194302l1.413981-1.41398099-1.413981 1.41398099z m1.413981-2.82796199c0-1.41398101 1.41398101-1.41398101 1.413981-2.82796202 0 1.41398101 0 1.41398101-1.413981 2.82796202z m21.20971505-89.08080318v-2.82796202 2.82796202z m-16.96777205-66.45710714c0-1.41398101-1.41398101-1.41398101-1.413981-2.827962 0 1.41398101 0 1.41398101 1.413981 2.827962z m-2.827962-4.24194301c0-1.41398101-1.41398101-1.41398101-1.413981-2.827962 1.41398101 1.41398101 1.41398101 2.82796201 1.413981 2.827962z m-1.413981-4.241943l-1.413981-1.41398101c0 1.41398101 1.41398101 1.41398101 1.413981 1.41398101z m-2.827962-2.82796201l-1.413981-1.41398101c1.41398101 0 1.41398101 1.41398101 1.413981 1.41398101z m-55.14525911-56.55924012l-1.41398102-1.41398099s0 1.41398101 1.41398102 1.41398099z m-4.24194301-2.827962l-1.41398101-1.41398099 1.41398101 1.41398099z m-2.82796201-1.41398099c-1.41398101 0-1.41398101-1.41398101-2.827962-1.41398101 1.41398101 0 1.41398101 1.41398101 2.827962 1.41398101z m-4.24194299-1.41398101c-1.41398101 0-1.41398101-1.41398101-2.82796202-1.41398101 1.41398101 0 2.82796201 0 2.82796202 1.41398101z" fill="#39393B" /><path d="M861.12968941 602.49478418c-67.87108813 0-123.01634725 55.14525911-123.01634725 123.01634724 0 67.87108813 55.14525911 123.01634725 123.01634725 123.01634725 67.87108813 0 123.01634725-55.14525911 123.01634723-123.01634725 0-67.87108813-55.14525911-123.01634725-123.01634723-123.01634724z" fill="#1E6E87" /><path d="M861.12968941 622.29051822c-56.55924012 0-101.8066322 45.24739209-101.8066322 101.8066322s45.24739209 101.8066322 101.8066322 101.8066322 101.8066322-45.24739209 101.80663219-101.8066322c0-55.14525911-45.24739209-101.8066322-101.80663219-101.8066322zM196.55861808 462.51066491v15.55379102h26.86563906V462.51066491c29.69360106 1.41398101 57.97322111 9.89786702 82.01089817 22.62369603l-7.06990503 12.72582903L320.98894633 512l7.06990502-12.72582902c24.03767705 15.55379103 45.24739209 36.76350606 60.80118312 60.80118311l-12.72582903 7.06990502 12.72582903 22.62369606 12.72582902-7.06990504c12.72582902 25.45165805 19.79573404 53.73127811 22.62369604 82.01089817h-15.55379103v26.86563906h15.55379103c-1.41398101 29.69360106-9.89786702 57.97322111-22.62369604 82.01089815l-12.72582902-7.06990501-12.72582903 22.62369604 12.72582903 7.06990503c-15.55379103 24.03767705-36.76350606 45.24739209-60.80118312 60.80118312l-7.06990502-14.13981003-22.62369605 12.72582902 7.06990503 12.72582902c-25.45165805 12.72582902-53.73127811 19.79573404-82.01089817 22.62369605v-15.55379103h-26.86563906v15.55379103c-29.69360106-1.41398101-57.97322111-9.89786702-82.01089815-22.62369605l7.06990501-12.72582902-22.62369604-12.72582902-7.06990502 12.72582902c-24.03767705-15.55379103-45.24739209-36.76350606-60.80118313-60.80118311l12.72582902-7.06990502-12.72582902-22.62369605-12.72582901 7.06990502c-12.72582902-25.45165805-19.79573404-53.73127811-22.62369604-82.01089817h15.55379102v-26.86563906H-4.2266843c1.41398101-29.69360106 9.89786702-57.97322111 22.62369604-82.01089815l12.72582901 7.06990501 12.72582902-22.62369604-12.72582902-7.06990501c15.55379103-24.03767705 36.76350606-45.24739209 60.80118313-60.80118313l7.06990502 12.72582902 22.62369604-12.72582902-7.06990501-12.72582903c25.45165805-12.72582902 52.31729711-19.79573404 82.01089815-22.62369603z m-83.42487916 22.62369603c-1.41398101 0-1.41398101 1.41398101-2.82796199 1.41398101 1.41398101 0 2.82796201 0 2.82796199-1.41398101z m-4.241943 2.82796201c-1.41398101 0-1.41398101 1.41398101-2.82796201 1.41398101 1.41398101-1.41398101 2.82796201-1.41398101 2.82796201-1.41398101z m-4.24194301 2.82796201c-1.41398101 0-1.41398101 1.41398101-2.82796201 1.413981 1.41398101-1.41398101 1.41398101-1.41398101 2.82796201-1.413981z m-4.24194302 2.82796201c-1.41398101 0-1.41398101 1.41398101-2.82796199 1.413981 1.41398101-1.41398101 1.41398101-1.41398101 2.82796199-1.413981z m-4.24194301 1.413981c-1.41398101 0-1.41398101 1.41398101-2.827962 1.413981 1.41398101 0 1.41398101 0 2.827962-1.413981z m-66.45710712 65.04312612c0 1.41398101-1.41398101 1.41398101-1.413981 2.82796202 1.41398101-1.41398101 1.41398101-1.41398101 1.413981-2.82796202z m-2.82796202 4.24194302c0 1.41398101-1.41398101 1.41398101-1.41398099 2.827962 1.41398101 0 1.41398101-1.41398101 1.41398099-2.827962z m-1.41398099 4.24194301c0 1.41398101-1.41398101 2.82796201-1.41398101 2.82796199s0-1.41398101 1.41398101-2.82796199z m-2.82796201 4.24194299c0 1.41398101-1.41398101 2.82796201-1.41398099 2.82796201s0-1.41398101 1.41398099-2.82796201z m-2.827962 5.65592403c0 1.41398101-1.41398101 2.82796201-1.413981 2.827962 0-1.41398101 1.41398101-2.82796201 1.413981-2.827962zM-4.2266843 664.7099483z m0 22.62369604z m22.62369604 86.25284117c0 1.41398101 1.41398101 2.82796201 1.413981 2.82796201 0-1.41398101-1.41398101-1.41398101-1.413981-2.82796201z m2.82796201 4.241943c0 1.41398101 1.41398101 1.41398101 1.41398099 2.82796203-1.41398101 0-1.41398101-1.41398101-1.41398099-2.82796203z m1.41398099 4.24194302c0 1.41398101 1.41398101 2.82796201 1.413981 2.82796202s0-1.41398101-1.413981-2.82796202z m2.82796201 4.24194301c0 1.41398101 1.41398101 1.41398101 1.41398099 2.827962 0 0 0-1.41398101-1.41398099-2.827962z m2.82796201 5.65592402c0 1.41398101 1.41398101 1.41398101 1.413981 2.82796201 0-1.41398101 0-2.82796201-1.413981-2.82796201z m65.04312612 65.04312613c1.41398101 0 1.41398101 1.41398101 2.827962 1.413981-1.41398101 0-1.41398101 0-2.827962-1.413981z m4.24194302 2.827962c1.41398101 0 1.41398101 1.41398101 2.82796199 1.41398101-1.41398101 0-1.41398101 0-2.82796199-1.41398101z m4.241943 2.827962c1.41398101 0 1.41398101 1.41398101 2.82796201 1.41398102 0 0-1.41398101 0-2.82796201-1.41398102z m4.24194301 2.82796201c1.41398101 0 1.41398101 1.41398101 2.82796201 1.41398099 0 0-1.41398101-1.41398101-2.82796201-1.41398099z m5.65592401 2.827962c1.41398101 0 1.41398101 1.41398101 2.82796201 1.41398101-1.41398101-1.41398101-2.82796201-1.41398101-2.82796201-1.41398101z m108.87653722 24.03767704h2.827962-2.827962z m86.25284116-22.62369603c1.41398101 0 1.41398101-1.41398101 2.82796201-1.41398101-1.41398101 0-1.41398101 0-2.82796201 1.41398101z m4.24194301-2.82796202c1.41398101 0 1.41398101-1.41398101 2.82796202-1.41398099-1.41398101 0-1.41398101 1.41398101-2.82796202 1.41398099z m4.24194302-2.82796198c1.41398101 0 1.41398101-1.41398101 2.827962-1.41398102 0 1.41398101-1.41398101 1.41398101-2.827962 1.41398102z m4.241943-2.82796201c1.41398101 0 1.41398101-1.41398101 2.827962-1.41398101 0 1.41398101-1.41398101 1.41398101-2.827962 1.41398101z m5.65592401-2.82796201c1.41398101 0 1.41398101-1.41398101 2.82796201-1.413981-1.41398101 1.41398101-2.82796201 1.41398101-2.82796201 1.413981z m65.04312613-63.62914512c0-1.41398101 1.41398101-1.41398101 1.413981-2.82796201 0 0 0 1.41398101-1.413981 2.82796201z m2.82796201-4.24194302c0-1.41398101 1.41398101-1.41398101 1.413981-2.827962 0 0-1.41398101 1.41398101-1.413981 2.827962z m2.827962-4.24194301c0-1.41398101 1.41398101-2.82796201 1.413981-4.24194301 0 1.41398101-1.41398101 2.82796201-1.413981 4.24194301z m2.82796201-5.655924c0-1.41398101 1.41398101-1.41398101 1.413981-2.82796203-1.41398101 1.41398101-1.41398101 2.82796201-1.413981 2.82796203z m1.413981-4.24194302c0-1.41398101 1.41398101-2.82796201 1.413981-2.82796201 0 1.41398101 0 1.41398101-1.413981 2.82796201z m24.03767704-86.25284117v-2.82796201 2.82796201z m0-22.62369605v-2.827962 2.827962z m-21.20971503-86.25284116c0-1.41398101-1.41398101-2.82796201-1.41398101-2.827962s0 1.41398101 1.41398101 2.827962z m-2.82796201-4.24194301c0-1.41398101-1.41398101-2.82796201-1.413981-2.82796201s0 1.41398101 1.413981 2.82796201z m-2.82796201-5.65592402c0-1.41398101-1.41398101-2.82796201-1.413981-2.82796199 0 1.41398101 1.41398101 2.82796201 1.413981 2.82796199z m-2.827962-4.241943c0-1.41398101-1.41398101-1.41398101-1.413981-2.827962 0 1.41398101 1.41398101 2.82796201 1.413981 2.827962z m-2.82796201-4.241943c0-1.41398101-1.41398101-1.41398101-1.413981-2.82796202 1.41398101 1.41398101 1.41398101 1.41398101 1.413981 2.82796202z m-63.62914512-65.04312614c-1.41398101 0-1.41398101-1.41398101-2.82796201-1.413981 0 0 1.41398101 0 2.82796201 1.413981z m-5.65592402-2.827962c-1.41398101 0-1.41398101-1.41398101-2.827962-1.413981 1.41398101 0 2.82796201 0 2.827962 1.413981z m-4.241943-2.82796201c-1.41398101 0-1.41398101-1.41398101-2.827962-1.413981 1.41398101 0 2.82796201 0 2.827962 1.413981zM313.91904133 489.37630396c-1.41398101 0-1.41398101-1.41398101-2.82796202-1.41398101 1.41398101 0 1.41398101 1.41398101 2.82796202 1.41398101z m-4.24194302-2.82796201c-1.41398101 0-1.41398101-1.41398101-2.82796201-1.41398101 1.41398101 1.41398101 1.41398101 1.41398101 2.82796201 1.41398101z" fill="#39393B" /><path d="M210.69842811 519.06990501c-87.66682217 0-158.36587232 70.69905013-158.36587231 158.36587232s70.69905013 158.36587232 158.36587231 158.36587231 158.36587232-70.69905013 158.36587232-158.36587231c-1.41398101-87.66682217-72.11303115-158.36587232-158.36587232-158.36587232z" fill="#1E6E87" /><path d="M210.69842811 545.93554407c-72.11303115 0-131.50023326 59.38720211-131.50023325 131.50023326s59.38720211 131.50023326 131.50023325 131.50023325 131.50023326-59.38720211 131.50023326-131.50023325c0-73.52701215-59.38720211-131.50023326-131.50023326-131.50023326z" fill="#39393B" /><path d="M681.55410205 685.91966334l-24.03767704 1.413981 103.22061319-154.1239293 214.92511244-8.48388602-4.24194302 24.03767704-197.95734038 9.89786704-91.90876519 127.25829024z m-203.6132644 0l-35.34952507 4.24194301L312.50506032 476.65047493H96.16596688l-63.62914512 53.7312781-19.79573403-24.03767705 77.76895514-59.38720211 247.4466755-2.827962 139.98411928 241.79075147z" fill="#4E4D52" /><path d="M846.98987937 431.40308285l7.06990502 19.79573404-224.82297945-7.06990502 2.82796202-11.31184803 214.92511241-1.41398099z" fill="#000305" /><path d="M691.45196906 533.20971504v39.59146807l-73.52701214 5.65592403 1.413981-46.6613731 72.11303114 1.413981z"  /><path d="M617.92495692 578.45710714l1.413981-46.6613731 73.52701214 1.413981v39.59146807l-74.94099314 5.65592403z m1.413981-46.6613731l-1.413981 45.24739209 72.11303115-5.65592402V533.20971504l-70.69905015-1.413981z"  /><path d="M156.96715001 195.26825538l2.827962 41.00544907c9.89786702-1.41398101 18.38175303-9.89786702 16.96777204-22.62369604 0-9.89786702-9.89786702-18.38175303-19.79573404-18.38175303z" fill="#1E6E87" /><path d="M149.81301371 195.56513616l7.0560966-0.49434103 2.9121933 40.89222014-7.0560966 0.50814942z" fill="#000305" /><path d="M589.64533687 123.15522423c-12.72582902 1.41398101-21.20971504 11.31184801-21.20971503 24.03767705l45.24739208-2.82796201c0-12.72582902-11.31184801-21.20971504-24.03767705-21.20971504z" fill="#F2D03B" /><path d="M567.02164082 147.19290128v7.06990501l-28.27962006 1.41398101 24.03767706 18.38175304 1.413981 18.38175303 38.17748707-21.20971504 2.82796201-8.48388603h11.31184801l-1.41398099-19.79573403z" fill="#0E3B42" /><path d="M169.69297903 383.32772875l5.65592402-189.47345438 25.45165805-24.03767704 333.69951666-24.03767705 33.93554408 26.86563905 31.10758204 436.92012986-154.1239293 11.31184802-5.65592402-79.18293615-82.01089815-100.39265119-152.70994831-56.55924012-33.93554406 2.827962z" fill="#1E6E87" /><path d="M210.69842811 195.26825538l-5.65592401 169.67772033 147.0540243 21.20971505 127.25829026 152.7099483 52.31729709-4.24194302-25.45165805-360.5651557z" fill="#DAEDE2" /><path d="M479.35481866 548.76350606c-2.82796201 0-5.65592402-1.41398101-8.48388603-4.241943l-124.43032824-149.88198629-142.81208128-21.20971504c-5.65592402-1.41398101-8.48388603-5.65592402-8.48388603-9.89786703l5.65592402-169.67772033c0-5.65592402 4.24194301-9.89786702 9.89786701-9.89786702l296.93601059-21.20971505c2.82796201 0 5.65592402 0 7.06990502 2.82796201 1.41398101 1.41398101 2.82796201 4.24194301 2.82796201 7.06990502l25.45165805 360.56515571c0 2.82796201 0 5.65592402-2.82796202 7.06990502s-4.24194301 2.82796201-7.06990501 2.82796201l-53.73127809 5.65592399zM216.35435213 356.4620897l138.57013827 19.79573403c2.82796201 0 4.24194301 1.41398101 7.06990502 4.24194301l123.01634723 148.46800529 38.17748708-2.827962-24.03767703-340.76942168-277.14027657 19.79573403-5.655924 151.29596732z" fill="#1D181F" /><path d="M523.18822973 172.64455933l-16.96777203 1.41398101 15.55379104 209.26918841 33.93554406-1.41398101-14.13981002-192.30141638z" fill="#DAEDE2" /><path d="M521.77424874 394.63957677c-5.65592402 0-9.89786702-4.24194301-9.89786703-9.89786702l-15.55379102-209.26918842c0-2.82796201 0-5.65592402 2.82796201-7.06990501 1.41398101-1.41398101 4.24194301-2.82796201 7.069905-2.82796201l16.96777203-1.413981c2.82796201 0 5.65592402 1.41398101 7.06990503 2.827962l18.38175302 16.96777204c1.41398101 1.41398101 2.82796201 4.24194301 2.827962 7.06990501l14.13981003 190.88743538c0 2.82796201 0 5.65592402-2.82796199 7.06990501-1.41398101 1.41398101-4.24194301 2.82796201-7.06990502 2.827962l-33.93554406 2.82796202z m-4.24194301-210.68316942l14.13981002 189.47345438 14.13981003-1.413981-12.72582903-176.74762535-12.72582902-11.31184803h-2.827962z" fill="#1D181F" /><path d="M312.50506032 380.49976674l4.24194301-192.30141638" fill="#DAEDE2" /><path d="M303.00349461 380.90987646l3.49214645-192.27379955 21.20971504 0.39630131-3.50733569 192.25861031z" fill="#1D181F" /><path d="M210.69842811 195.26825538l-5.65592401 169.67772033 147.0540243 21.20971505 50.9033161 60.80118311-4.24194301-49.4893351 11.31184803-1.41398101c8.48388603 0 14.13981003-7.06990501 14.13981001-15.55379102 0-8.48388603-7.06990501-14.13981003-15.55379103-14.13981004l-73.52701213 5.65592403-8.48388602-127.25829026c0-8.48388603-7.06990501-14.13981003-15.55379104-14.13981003-8.48388603 0-14.13981003 7.06990501-14.13981003 15.55379105l7.06990502 94.73672717-77.76895515-9.89786702 4.241943-138.57013827-19.79573404 2.82796201zM531.67211575 277.27915353l-56.55924011 28.27962006-7.06990501 16.96777204-11.31184803-5.65592401 11.31184803-25.45165805c1.41398101-2.82796201 0-7.06990501-2.82796201-8.48388602s-7.06990501 0-8.48388602 2.827962l-25.45165804 56.55924011c-1.41398101 2.82796201 0 7.06990501 2.82796199 8.48388601h2.82796201c2.82796201 0 4.24194301-1.41398101 5.65592402-4.241943l11.31184803-24.03767704 11.31184801 5.655924-11.31184801 28.27962007 29.69360105 29.69360106 31.10758206 149.88198629 16.96777203-1.41398101 33.93554406-2.827962-11.31184802-151.2959673-7.069905-104.63459421-15.55379104 1.413981z" fill="#1D181F" /></svg>